<?xml version="1.0" encoding="utf-8"?>
<!-- Generator: Adobe Illustrator 25.4.1, SVG Export Plug-In . SVG Version: 6.00 Build 0)  -->
<svg version="1.0" id="katman_1" xmlns="http://www.w3.org/2000/svg" xmlns:xlink="http://www.w3.org/1999/xlink" x="0px" y="0px"
	 viewBox="0 0 800 600" style="enable-background:new 0 0 800 600;" xml:space="preserve">
<symbol  id="fastfood-20" viewBox="-8.9 -9 17.7 18">
	<path fill="#7e0030" d="M6.7,2.2c0.1,0,0.2,0,0.6-0.1c0.5-0.3,1.2,0,1.4,0.5C9,3.1,8.8,3.8,8.2,4C7.5,4.4,6.8,4.5,6.2,4.3C5.6,4.1,5.1,3.8,4.8,3.5
		C4.7,3.4,4.6,3.3,4.5,3.2C4.3,3.1,4.2,3,4,2.8C3.8,2.7,3.7,2.7,3.5,2.7l0,0h0c-0.3,0-0.5,0.1-1,0.6c0,0,0,0-0.1,0.1
		C1.9,3.8,1.1,4.4,0,4.4c-1.1,0-1.9-0.7-2.3-1.1c0,0-0.1,0-0.1-0.1c-0.5-0.5-0.7-0.6-1-0.6l0,0h0c-0.2,0-0.3,0.1-0.5,0.2
		C-4.2,3-4.3,3.1-4.5,3.3c-0.1,0.1-0.2,0.2-0.4,0.3c-0.3,0.3-0.8,0.6-1.4,0.8c-0.7,0.2-1.3,0-2-0.3C-8.8,3.7-9,3.1-8.7,2.6
		C-8.5,2-7.8,1.8-7.3,2.1c0.3,0.2,0.5,0.1,0.6,0.1c0.1,0,0.3-0.1,0.5-0.3c0.1,0,0.1-0.1,0.2-0.2c0.2-0.2,0.5-0.5,0.8-0.6
		c0.4-0.3,1-0.5,1.7-0.6c1.2,0,2,0.7,2.4,1.1c0,0,0,0,0,0c0.6,0.5,0.8,0.6,1,0.6c0.2,0,0.4-0.1,1-0.6c0,0,0,0,0.1,0
		c0.5-0.4,1.2-1.1,2.4-1.1c0.7,0,1.3,0.2,1.7,0.5C5.5,1.2,5.8,1.5,6,1.7c0.1,0.1,0.1,0.1,0.2,0.2C6.4,2.1,6.6,2.2,6.7,2.2z M6.8,9
		H-7c-0.2,0-0.5,0-0.7-0.1c-0.2-0.1-0.4-0.2-0.6-0.4c-0.2-0.2-0.3-0.4-0.4-0.6c-0.1-0.2-0.1-0.4-0.1-0.7c0-0.2,0-0.5,0.1-0.7
		C-8.5,6.4-8.4,6.2-8.2,6c0.2-0.2,0.4-0.3,0.6-0.4C-7.4,5.5-7.2,5.5-7,5.5H6.8C7.2,5.5,7.7,5.7,8,6c0.3,0.3,0.5,0.8,0.5,1.2
		c0,0.2,0,0.5-0.1,0.7C8.3,8.1,8.2,8.3,8,8.5C7.8,8.6,7.6,8.8,7.4,8.9C7.2,9,7,9,6.8,9z M6.6-0.7H-6.9c-0.3,0-0.7-0.1-0.9-0.2
		s-0.5-0.4-0.7-0.7c-0.2-0.3-0.3-0.6-0.3-0.9c0-0.3,0-0.7,0.2-1c0.7-1.6,1.9-3,3.4-4S-1.9-9-0.1-9c1.8,0,3.6,0.5,5.1,1.5
		c1.5,1,2.7,2.4,3.4,4c0.1,0.3,0.2,0.6,0.2,1c0,0.3-0.1,0.6-0.3,0.9C8-1.3,7.8-1.1,7.5-0.9C7.2-0.8,6.9-0.7,6.6-0.7z"/>
</symbol>
<use xlink:href="#fastfood-20"  width="17.7" height="18" x="-8.9" y="-9" transform="matrix(22.3792 0 0 22.3792 400 300)" style="overflow:visible;"/>
</svg>
